<svg xmlns="http://www.w3.org/2000/svg" viewBox="0 0 512 512" role="img" aria-label="CryptoPayMap">
  <rect width="512" height="512" fill="#0f766e" />
  <path d="M256 112c-70.7 0-128 56.3-128 125.9 0 95.6 110.2 152.5 121.2 157.9a15.4 15.4 0 0 0 13.6 0c11-5.4 121.2-62.3 121.2-157.9C384 168.3 326.7 112 256 112Z" fill="#ccfbf1" />
  <circle cx="256" cy="234" r="66" fill="#0f766e" />
  <path d="M228 213h62a24 24 0 0 1 0 48h-14m10-48-58 70m0-70h62a24 24 0 0 1 0 48h-62" fill="none" stroke="#ffffff" stroke-width="18" stroke-linecap="round" stroke-linejoin="round" />
</svg>
